<svg xmlns="http://www.w3.org/2000/svg" viewBox="0 0 64 64" enable-background="new 0 0 64 64"><path d="m6.6611.2188c.1963 1.4658.1641 2.647-.1318 3.4014l-2.7119-2.0123c.5361-.5581 1.6299-1.2251 2.8437-1.3891z" fill="#dadee0"/><path d="m6.3105 3.522-1.1152-1.4546s.208-.7988 1.2686-1.3564c.3173 1.2685-.1534 2.811-.1534 2.811" fill="#f7a4a4"/><path d="m5.8848 3.1938-.6895-.897s.2842-.5469.9404-.897c-.3828.8204-.2509 1.794-.2509 1.794" fill="#f78d8d"/><path d="m.3389.2188c-.1968 1.4658-.1641 2.647.1313 3.4014l2.7124-2.0234c-.5356-.547-1.6294-1.214-2.8437-1.378z" fill="#dadee0"/><path d="m.689 3.522 1.1265-1.4546s-.2075-.7988-1.2686-1.3564c-.3281 1.2685.1421 2.811.1421 2.811" fill="#f7a4a4"/><path d="m1.1157 3.1938.6997-.897s-.2842-.5469-.9404-.897c.3721.8204.2407 1.794.2407 1.794" fill="#f78d8d"/><path d="m6.3652 5.5566c.0879-.0986.1534-.1757.1866-.2412.1748-.2842.2295-.5791.2295-.5791l-.2188.043s.252-.2734.1855-.8525l-.2187.2294s.208-.5908.0332-1.1377l-.2402.1753s.0762-.2188.0107-.3721l-.0986.0767s.1855-.5142.0215-.7217c-.0977.3062-.207.3062-.207.3062s.1309-.23.0322-.3281c-.1094.1748-.1963.0654-.1963.0107.0107-.0654-.0225-.1641.2949-.2188-.252-.1528-.5576-.0435-.5576-.0435s.0107-.1639.2295-.1532c-.208-.1748-.4922-.0654-.4922-.0654-.4483-.3394-1.0498-.5362-1.8701-.5362-.8096 0-1.4111.1968-1.8706.5361 0 0-.2842-.0986-.4922.0654.2188-.0107.23.1533.23.1533s-.2955-.1093-.5582.0436c.3174.0439.2954.1421.2954.2188 0 .0547-.0874.1641-.1968-.0107-.1093.098.0328.328.0328.328s-.1094 0-.208-.3062c-.1641.2188.022.7217.022.7217l-.0982-.0766c-.0659.1533.0107.372.0107.372l-.2187-.1752c-.186.5469.0327 1.1377.0327 1.1377l-.2075-.2295c-.0767.5791.1748.8525.1748.8525l-.2188-.043s.0547.2949.2295.5791c.022.0547.0879.1426.186.2412 0 0 0 0 .0112.0107.4484.4483 1.5528 1.2139 2.8546 1.2139s2.4062-.7656 2.8545-1.2139c0-.0107.0107-.0107.0107-.0107" fill="#dadee0"/><g fill="#94989b"><path d="m4.123 1.1812c-.1962-.0328-.4042-.0435-.623-.0435s-.4268.0107-.6235.0435c.0766.4267.3061.7221.6235 1.269.3281-.5581.5469-.8535.623-1.269"/><path d="m5.1191 1.5093c-.208-.1201-.4492-.2075-.7109-.2734.0654.2515.207.4268.3936.7549.1416-.2301.2402-.2955.3173-.4815"/><path d="m2.5923 1.2358c-.2735.066-.5034.1534-.711.2735.0767.1968.186.2515.3169.4814.1973-.3393.3282-.5141.3941-.7549"/></g><path d="m3.9375 4.1562c-.0874-.0986-.3608-.1093-.4375-.1093s-.3501.0107-.4375.1093c-.0654.0762-.0107.252.1533.416.1094.0977.2075.1309.2842.1309s.186-.0332.2842-.1309c.1753-.1533.2187-.3398.1533-.416" fill="#4c5359"/><path d="m2.6577 3.3687s-.0547-.5029-.4922-.6562c-.4922-.186-.8311.2627-.9297.5142-.1313.3721.0327.7764.0874.875.0332.0653.4048.3495 1.2251.076 0 0 .208-.415.1094-.809" fill="#fff"/><path d="m2.6577 3.3687c-.0434-.1749-.1201-.3282-.2515-.4483-.0546-.0547-.1313-.1094-.208-.1313-.0327-.0108-.0761-.0328-.1201-.0328-.022-.0112-.0654-.022-.1094-.022-.1641 0-.3062.0654-.4268.1748-.12.1095-.2074.252-.2514.4049-.0435.1533-.0327.3281 0 .4814.022.0767.0439.1641.0767.2407l.0107.0215c0-.0107 0 0 0 0l.0112.0107c.0107.0117.022.0225.0435.0332.0332.0215.0659.044.0986.0547.1533.0654.3174.0879.4922.0879s.3501-.0332.5249-.0771c-.164.0771-.3388.1201-.5141.1533-.1748.0215-.3716.0215-.5469-.0439-.0435-.0108-.0874-.0323-.1309-.0655-.0219-.0107-.0439-.0332-.0659-.0439-.0107 0-.0107-.0107-.022-.0215l-.0107-.0107-.0107-.0118-.022-.0322c-.0439-.0879-.0767-.1753-.0986-.2627-.0435-.1748-.0547-.372-.0108-.5576.0547-.186.1641-.3501.3062-.4814.1421-.1202.3388-.208.5361-.1861.0435.0112.0981.0112.1421.0327.0435.0113.0874.0332.1313.0547.0874.0439.1528.1094.2188.1753.1309.1529.1968.3281.2075.503" fill="#b2b6b8"/><path d="m4.3418 3.3687s.0547-.5029.4922-.6562c.4922-.186.832.2627.9297.5142.1318.3721-.0322.7764-.0869.875-.0332.0653-.4053.3495-1.2256.076 0 0-.2071-.415-.1094-.809" fill="#fff"/><path d="m4.3418 3.3687c.0117-.1748.0771-.3501.1865-.5029.0547-.0767.1309-.1314.2188-.1754.0439-.0215.0869-.0434.1308-.0547.044-.0107.0987-.0214.1426-.0327.1963-.022.3936.0659.5361.186.1416.1313.251.2842.3057.4814.0439.1855.0332.3828-.0107.5684-.0215.088-.0547.1749-.0987.2628l-.0215.0332-.0107.0107v.0107c-.0117.0108-.0117.0108-.0225.0215-.0214.0225-.0439.0332-.0654.044-.0439.0224-.0879.0439-.1308.0654-.1866.0664-.3721.0664-.5469.044-.1758-.0323-.3506-.0762-.5147-.1534.1748.0332.3506.0664.5254.0772.1748 0 .3496-.0225.4922-.0879.0322-.0107.0762-.0322.0986-.0547.0107-.0107.0322-.0215.043-.0322l.0117-.0117.0107-.0215c.0322-.0767.0547-.1533.0762-.2407.0332-.1641.0439-.3281 0-.481-.0439-.1533-.1309-.2954-.251-.4048-.121-.1094-.2626-.1753-.4267-.1753-.0439 0-.0771.0112-.1201.0112-.0439.0107-.0771.022-.1211.0327-.0762.0327-.1416.0767-.207.1313-.1094.1202-.1866.2843-.2305.4484" fill="#b2b6b8"/><ellipse cx="4.8125" cy="3.5547" fill="#4c5359" rx=".4375" ry=".4922"/><ellipse cx="2.1875" cy="3.5547" fill="#4c5359" rx=".4375" ry=".4922"/><path d="m4.458 5.1221c-.6328.5244-1.334.5244-1.9688 0-.0761-.0664-.1425.0429-.0878.1416.1973.3721.5801.7109 1.0723.7109s.8867-.3389 1.0723-.7109c.0546-.0987-.0099-.208-.088-.1416" fill="#4c5359"/></svg>